<?xml version="1.0" encoding="utf-8"?>
<!-- Generator: Adobe Illustrator 23.0.1, SVG Export Plug-In . SVG Version: 6.00 Build 0)  -->
<svg version="1.1" id="Layer_1" xmlns="http://www.w3.org/2000/svg" xmlns:xlink="http://www.w3.org/1999/xlink" x="0px" y="0px"
	 viewBox="0 0 39 39" style="enable-background:new 0 0 39 39;" xml:space="preserve">
<style type="text/css">
	.st0{fill:url(#SVGID_1_);}
</style>
<linearGradient id="SVGID_1_" gradientUnits="userSpaceOnUse" x1="8.411033e-02" y1="19.5" x2="38.9159" y2="19.5">
	<stop  offset="0" style="stop-color:#3BB44A"/>
	<stop  offset="0.162" style="stop-color:#2CA558"/>
	<stop  offset="0.4685" style="stop-color:#168D6E"/>
	<stop  offset="0.7552" style="stop-color:#097F7B"/>
	<stop  offset="1" style="stop-color:#047A80"/>
</linearGradient>
<path class="st0" d="M32.1,11.4L19.5,22.5L6.9,11.4C6.4,11,5.7,11,5.2,11.5c-0.4,0.5-0.4,1.3,0.1,1.7L18.7,25
	c0.2,0.2,0.5,0.3,0.8,0.3s0.6-0.1,0.8-0.3l13.4-11.8c0.5-0.4,0.5-1.2,0.1-1.7C33.3,11,32.6,11,32.1,11.4z M35.3,6.3H3.7
	c-2,0-3.6,1.6-3.6,3.6v19.2c0,2,1.6,3.6,3.6,3.6h31.6c2,0,3.6-1.6,3.6-3.6V9.9C38.9,7.9,37.3,6.3,35.3,6.3z M36.5,29.1
	c0,0.7-0.5,1.2-1.2,1.2H3.7c-0.7,0-1.2-0.5-1.2-1.2V9.9c0-0.7,0.5-1.2,1.2-1.2h31.6c0.7,0,1.2,0.5,1.2,1.2V29.1z"/>
</svg>
