<?xml version="1.0" encoding="utf-8"?>
<!-- Generator: Adobe Illustrator 23.0.1, SVG Export Plug-In . SVG Version: 6.00 Build 0)  -->
<svg version="1.1" id="Layer_1" xmlns="http://www.w3.org/2000/svg" xmlns:xlink="http://www.w3.org/1999/xlink" x="0px" y="0px"
	 viewBox="0 0 55 55" style="enable-background:new 0 0 55 55;" xml:space="preserve">
<style type="text/css">
	.st0{fill:url(#SVGID_1_);}
</style>
<linearGradient id="SVGID_1_" gradientUnits="userSpaceOnUse" x1="2" y1="28" x2="50" y2="28">
	<stop  offset="0" style="stop-color:#3BB44A"/>
	<stop  offset="0.5251" style="stop-color:#047A80"/>
	<stop  offset="1" style="stop-color:#39AB52"/>
</linearGradient>
<path class="st0" d="M49.7,16.3l-13-13.5c-0.2-0.2-0.4-0.3-0.7-0.3H16.7c-2.2,0-3.9,1.8-3.9,3.9v13.7H4.9c-1.6,0-2.9,1.3-2.9,2.9
	v14.7c0,1.6,1.3,2.9,2.9,2.9h7.8v8.8c0,2.2,1.8,3.9,3.9,3.9h29.4c2.2,0,3.9-1.8,3.9-3.9V17C50,16.7,49.9,16.5,49.7,16.3z M36.3,5.2
	l10.7,11.1H36.3V5.2z M4.9,38.8c-0.5,0-1-0.4-1-1V23.1c0-0.5,0.4-1,1-1h26.5c0.5,0,1,0.4,1,1v14.7c0,0.5-0.4,1-1,1H4.9z M48,49.6
	c0,1.1-0.9,2-2,2H16.7c-1.1,0-2-0.9-2-2v-8.8h16.7c1.6,0,2.9-1.3,2.9-2.9V23.1c0-1.6-1.3-2.9-2.9-2.9H14.7V6.5c0-1.1,0.9-2,2-2h17.6
	v12.7c0,0.5,0.4,1,1,1H48L48,49.6L48,49.6z M13.7,27.4c-0.3-0.4-0.7-0.7-1.2-0.8c-0.3-0.1-1-0.1-2-0.1H7.8v8.4h1.7v-3.2h1.1
	c0.8,0,1.4,0,1.8-0.1c0.3-0.1,0.6-0.2,0.9-0.4c0.3-0.2,0.5-0.5,0.7-0.8c0.2-0.4,0.3-0.8,0.3-1.3C14.2,28.4,14,27.8,13.7,27.4z
	 M12.3,29.7c-0.1,0.2-0.3,0.3-0.5,0.4c-0.2,0.1-0.7,0.1-1.3,0.1H9.5v-2.4h0.8c0.6,0,1,0,1.2,0.1c0.3,0,0.5,0.2,0.7,0.4
	c0.2,0.2,0.3,0.5,0.3,0.8C12.4,29.3,12.4,29.5,12.3,29.7z M22.4,28.7c-0.2-0.5-0.5-1-0.8-1.4c-0.4-0.4-0.8-0.6-1.3-0.8
	c-0.4-0.1-0.9-0.2-1.6-0.2h-3.1v8.4h3.2c0.6,0,1.1-0.1,1.5-0.2c0.5-0.2,0.9-0.4,1.2-0.7c0.4-0.4,0.7-0.9,0.9-1.5
	c0.2-0.5,0.3-1.1,0.3-1.8C22.6,29.9,22.6,29.3,22.4,28.7z M20.7,32.2c-0.1,0.4-0.3,0.6-0.4,0.8c-0.2,0.2-0.4,0.3-0.7,0.4
	c-0.2,0.1-0.6,0.1-1,0.1h-1.3l0,0v-5.6h0.8c0.7,0,1.2,0,1.4,0.1c0.3,0.1,0.6,0.2,0.8,0.4s0.4,0.5,0.5,0.8c0.1,0.3,0.2,0.8,0.2,1.5
	C20.9,31.3,20.8,31.8,20.7,32.2z M29.9,27.9v-1.4h-5.8v8.4h1.7v-3.6h3.5v-1.4h-3.5v-2H29.9z"/>
</svg>
