<?xml version="1.0" encoding="utf-8"?>
<!-- Generator: Adobe Illustrator 23.0.1, SVG Export Plug-In . SVG Version: 6.00 Build 0)  -->
<svg version="1.1" id="Layer_1" xmlns="http://www.w3.org/2000/svg" xmlns:xlink="http://www.w3.org/1999/xlink" x="0px" y="0px"
	 viewBox="0 0 39 39" style="enable-background:new 0 0 39 39;" xml:space="preserve">
<style type="text/css">
	.st0{fill:url(#SVGID_1_);}
</style>
<linearGradient id="SVGID_1_" gradientUnits="userSpaceOnUse" x1="1.5157" y1="19.5" x2="37.4843" y2="19.5">
	<stop  offset="0" style="stop-color:#3BB44A"/>
	<stop  offset="0.162" style="stop-color:#2CA558"/>
	<stop  offset="0.4685" style="stop-color:#168D6E"/>
	<stop  offset="0.7552" style="stop-color:#097F7B"/>
	<stop  offset="1" style="stop-color:#047A80"/>
</linearGradient>
<path class="st0" d="M32.6,5.8C29.5,2.7,25.4,1,20.9,1c-0.7,0-1.3,0.6-1.3,1.3s0.6,1.3,1.3,1.3c3.7,0,7.2,1.4,9.8,4.1
	c2.6,2.6,4.1,6.1,4.1,9.8c0,0.7,0.6,1.3,1.3,1.3c0.7,0,1.3-0.6,1.3-1.3C37.5,13.1,35.8,9,32.6,5.8z M27.2,17.5
	c0,0.7,0.6,1.3,1.3,1.3c0.7,0,1.3-0.6,1.3-1.3c0-4.9-4-8.9-8.9-8.9c0,0,0,0,0,0c-0.7,0-1.3,0.6-1.3,1.3c0,0.7,0.6,1.3,1.3,1.3
	C24.4,11.2,27.2,14.1,27.2,17.5z M24.3,24.2c-2-0.1-3,1.4-3.5,2.1c-0.4,0.6-0.3,1.4,0.3,1.8c0.6,0.4,1.4,0.3,1.8-0.3
	c0.6-0.8,0.8-1,1.2-1c1.1,0.1,5.6,3.4,6.1,4.4c0.1,0.3,0.1,0.6,0,1c-0.5,1.4-1.2,2.4-2.2,2.8c-1,0.4-2.1,0.4-3.4-0.1
	c-4.7-1.9-8.8-4.6-12.2-7.9c0,0,0,0,0,0c-3.3-3.4-6-7.5-7.9-12.1C4,13.6,4,12.5,4.4,11.5c0.5-1,1.4-1.8,2.8-2.2c0.4-0.1,0.7-0.1,1,0
	c1,0.4,4.3,4.9,4.4,6c0,0.4-0.1,0.6-1,1.2c-0.6,0.4-0.8,1.2-0.3,1.8c0.4,0.6,1.2,0.8,1.8,0.3c0.7-0.5,2.2-1.5,2.1-3.5
	c-0.1-2.1-4.2-7.6-6.1-8.4c-0.9-0.3-1.8-0.3-2.7,0c-2.1,0.7-3.6,2-4.4,3.6c-0.7,1.6-0.7,3.5,0.1,5.5c2,5,4.9,9.4,8.5,13c0,0,0,0,0,0
	c3.6,3.6,8,6.4,13,8.5c1,0.4,2,0.6,2.9,0.6c0.9,0,1.7-0.2,2.5-0.5c1.7-0.8,2.9-2.3,3.6-4.4c0.3-0.9,0.3-1.8,0-2.7
	C32,28.4,26.4,24.3,24.3,24.2z"/>
</svg>
