<?xml version="1.0" encoding="utf-8"?>
<!-- Generator: Adobe Illustrator 23.0.1, SVG Export Plug-In . SVG Version: 6.00 Build 0)  -->
<svg version="1.1" id="Layer_1" xmlns="http://www.w3.org/2000/svg" xmlns:xlink="http://www.w3.org/1999/xlink" x="0px" y="0px"
	 viewBox="0 0 39 39" style="enable-background:new 0 0 39 39;" xml:space="preserve">
<style type="text/css">
	.st0{fill:url(#SVGID_1_);}
</style>
<linearGradient id="SVGID_1_" gradientUnits="userSpaceOnUse" x1="6.0378" y1="19.5" x2="32.9622" y2="19.5">
	<stop  offset="0" style="stop-color:#3BB44A"/>
	<stop  offset="0.162" style="stop-color:#2CA558"/>
	<stop  offset="0.4685" style="stop-color:#168D6E"/>
	<stop  offset="0.7552" style="stop-color:#097F7B"/>
	<stop  offset="1" style="stop-color:#047A80"/>
</linearGradient>
<path class="st0" d="M19.5,2C12.1,2,6,8.1,6,15.5c0,5.3,2.2,10.7,6.4,15.5c3.1,3.6,6.2,5.7,6.4,5.8c0.2,0.1,0.4,0.2,0.7,0.2
	c0.2,0,0.5-0.1,0.7-0.2c0.1-0.1,3.2-2.1,6.4-5.8c4.2-4.8,6.4-10.2,6.4-15.5C33,8.1,26.9,2,19.5,2z M19.5,34.3
	c-2.5-1.8-11-8.9-11-18.8c0-6.1,5-11,11-11c6.1,0,11,5,11,11C30.5,25.3,22,32.4,19.5,34.3z M19.5,10.2c-2.9,0-5.3,2.4-5.3,5.3
	c0,2.9,2.4,5.3,5.3,5.3s5.3-2.4,5.3-5.3C24.8,12.5,22.4,10.2,19.5,10.2z M19.5,18.4c-1.6,0-2.9-1.3-2.9-2.9c0-1.6,1.3-2.9,2.9-2.9
	c1.6,0,2.9,1.3,2.9,2.9C22.4,17.1,21.1,18.4,19.5,18.4z"/>
</svg>
